<?xml version="1.0" encoding="UTF-8" standalone="no"?>
<!-- Created with Inkscape (http://www.inkscape.org/) -->

<svg
   width="48"
   height="48"
   viewBox="0 0 48 48"
   version="1.1"
   id="svg1"
   xmlns="http://www.w3.org/2000/svg"
   xmlns:svg="http://www.w3.org/2000/svg">
  <defs
     id="defs1" />
  <g
     id="layer2"
     style="display:inline;stroke-width:2.21044;stroke-dasharray:none"
     transform="matrix(0.4523988,0,0,0.4523988,-3.1019229,-3.7725105)">
    <circle
       style="display:inline;fill:none;fill-opacity:0;stroke:#ffffff;stroke-width:0.929951;stroke-dasharray:none;stroke-opacity:1"
       id="path7"
       cx="15.338288"
       cy="-5.8007755"
       r="8.3304148"
       transform="matrix(2.3769402,0,0,2.3769402,23.559649,53.110135)" />
    <path
       style="display:inline;fill:none;fill-opacity:0;stroke:#ffffff;stroke-width:0.929951;stroke-dasharray:none;stroke-opacity:1"
       d="M 4.3795898,-5.4705137 V 23.832749"
       id="path17"
       transform="matrix(2.3769402,0,0,2.3769402,23.559649,53.110135)" />
    <path
       style="display:inline;fill:none;fill-opacity:0;stroke:#ffffff;stroke-width:0.929951;stroke-dasharray:none;stroke-opacity:1"
       d="M 26.296988,-5.4705137 V 23.832749"
       id="path18"
       transform="matrix(2.3769402,0,0,2.3769402,23.559649,53.110135)" />
    <path
       style="display:inline;fill:none;fill-opacity:0;stroke:#ffffff;stroke-width:0.929951;stroke-dasharray:none;stroke-opacity:1"
       d="M 9.7838801,10.862452 H 20.832651"
       id="path19"
       transform="matrix(2.3769402,0,0,2.3769402,23.559649,53.110135)" />
    <path
       style="display:inline;fill:none;fill-opacity:0;stroke:#ffffff;stroke-width:0.929951;stroke-dasharray:none;stroke-opacity:1"
       d="m 4.3779246,-5.4705137 c 0,-6.1088153 4.9371954,-11.1718843 11.0504354,-11.1718843 5.778459,0 10.871958,4.945784 10.871958,11.1718843"
       id="path34"
       transform="matrix(2.3769402,0,0,2.3769402,23.559649,53.110135)" />
    <path
       style="display:none;fill:none;fill-opacity:0;stroke:#ffffff;stroke-width:0.929951;stroke-dasharray:none;stroke-opacity:1"
       d="M 6.5045213,17.689409 C 7.841273,19.68485 9.178026,21.680292 10.514778,23.675734"
       id="path36"
       transform="matrix(2.3769402,0,0,2.3769402,23.559649,53.110135)" />
    <path
       style="display:none;fill:none;fill-opacity:0;stroke:#ffffff;stroke-width:0.929951;stroke-dasharray:none;stroke-opacity:1"
       d="M 8.5241794,17.660349 C 7.1680537,19.650947 5.8119292,21.641545 4.4558029,23.632144"
       id="path37"
       transform="matrix(2.3769402,0,0,2.3769402,23.559649,53.110135)" />
    <path
       style="display:none;fill:none;fill-opacity:0;stroke:#ffffff;stroke-width:0.929951;stroke-dasharray:none;stroke-opacity:1"
       d="m 14.370766,17.689409 c 1.336752,1.995441 2.673504,3.990883 4.010257,5.986325"
       id="path42"
       transform="matrix(2.3769402,0,0,2.3769402,23.559649,53.110135)" />
    <path
       style="display:none;fill:none;fill-opacity:0;stroke:#ffffff;stroke-width:0.929951;stroke-dasharray:none;stroke-opacity:1"
       d="m 16.390425,17.660349 c -1.356127,1.990598 -2.712251,3.981196 -4.068378,5.971795"
       id="path43"
       transform="matrix(2.3769402,0,0,2.3769402,23.559649,53.110135)" />
    <path
       style="display:none;fill:none;fill-opacity:0;stroke:#ffffff;stroke-width:0.929951;stroke-dasharray:none;stroke-opacity:1"
       d="m 22.23701,17.689409 c 1.336752,1.995441 2.673505,3.990883 4.010256,5.986325"
       id="path52"
       transform="matrix(2.3769402,0,0,2.3769402,23.559649,53.110135)" />
    <path
       style="display:none;fill:none;fill-opacity:0;stroke:#ffffff;stroke-width:0.929951;stroke-dasharray:none;stroke-opacity:1"
       d="m 24.256669,17.660349 c -1.356126,1.990598 -2.71225,3.981196 -4.068377,5.971795"
       id="path53"
       transform="matrix(2.3769402,0,0,2.3769402,23.559649,53.110135)" />
    <path
       style="display:inline;fill:none;fill-opacity:0;stroke:#ffffff;stroke-width:0.929951;stroke-dasharray:none;stroke-opacity:1"
       d="M 4.0193039,23.652605 H 26.597227"
       id="path62"
       transform="matrix(2.3769402,0,0,2.3769402,23.559649,53.110135)" />
    <path
       style="display:inline;fill:none;fill-opacity:0;stroke:#ffffff;stroke-width:0.929951;stroke-dasharray:none;stroke-opacity:1"
       d="m 11.04488,-1.3272248 8.466722,-4.1432889 -4.143289,-4.2633846 -4.263385,4.2033367 8.466722,4.2633846"
       id="path63"
       transform="matrix(2.3769402,0,0,2.3769402,23.559649,53.110135)" />
    <path
       style="display:none;fill:none;fill-opacity:0;stroke:#ffffff;stroke-width:0.929951;stroke-dasharray:none;stroke-opacity:1"
       d="m 13.807073,23.712653 1.501192,-2.04162 1.441144,1.921524"
       id="path65"
       transform="matrix(2.3769402,0,0,2.3769402,23.559649,53.110135)" />
    <path
       style="display:none;fill:none;fill-opacity:0;stroke:#ffffff;stroke-width:0.929951;stroke-dasharray:none;stroke-opacity:1"
       d="m 6.0008763,23.712653 1.5011918,-2.04162 1.4411435,1.921524"
       id="path66"
       transform="matrix(2.3769402,0,0,2.3769402,23.559649,53.110135)" />
    <path
       style="display:none;fill:none;fill-opacity:0;stroke:#ffffff;stroke-width:0.929951;stroke-dasharray:none;stroke-opacity:1"
       d="m 21.703341,23.712653 1.501192,-2.04162 1.441144,1.921524"
       id="path67"
       transform="matrix(2.3769402,0,0,2.3769402,23.559649,53.110135)" />
    <path
       style="display:inline;fill:none;fill-opacity:0;stroke:#ffffff;stroke-width:0.929951;stroke-dasharray:none;stroke-opacity:1"
       d="M 15.368313,-14.05733 15.308265,2.6359213"
       id="path68"
       transform="matrix(2.3769402,0,0,2.3769402,23.559649,53.110135)" />
    <path
       style="display:inline;fill:none;fill-opacity:0;stroke:#ffffff;stroke-width:0.929951;stroke-dasharray:none;stroke-opacity:1"
       d="M -1.5651295,2.4557783 15.308265,15.125836 32.18166,2.4557783"
       id="path69"
       transform="matrix(2.3769402,0,0,2.3769402,23.559649,53.110135)" />
    <path
       style="display:inline;fill:none;fill-opacity:0;stroke:#ffffff;stroke-width:0.929951;stroke-dasharray:none;stroke-opacity:1"
       d="m 31.774204,2.5158261 2.341859,2.9423357 -2.942335,2.1617159"
       id="path70"
       transform="matrix(2.3769402,0,0,2.3769402,23.559649,53.110135)" />
    <path
       style="display:inline;fill:none;fill-opacity:0;stroke:#ffffff;stroke-width:0.929951;stroke-dasharray:none;stroke-opacity:1"
       d="m -1.1468784,2.5158261 -2.3418599,2.9423357 2.94233363,2.1617159"
       id="path71"
       transform="matrix(2.3769402,0,0,2.3769402,23.559649,53.110135)" />
  </g>
</svg>
