<?xml version="1.0" encoding="UTF-8" standalone="no"?>
<!-- Created with Inkscape (http://www.inkscape.org/) -->

<svg
   width="48"
   height="48"
   viewBox="0 0 48 48"
   version="1.1"
   id="svg1"
   xmlns="http://www.w3.org/2000/svg"
   xmlns:svg="http://www.w3.org/2000/svg">
  <defs
     id="defs1" />
  <g
     id="layer5">
    <path
       style="fill:none;fill-opacity:0;stroke:#333f6e;stroke-width:1;stroke-dasharray:none;stroke-opacity:1"
       d="m 7.6918466,27.813906 2.2237769,7.139496 8.1928645,-1.287451 7.373578,-8.543986 1.989695,-12.75746 -7.013414,-1.879238 H 9.8571045 Z"
       id="path95" />
    <path
       style="fill:none;fill-opacity:0;stroke:#333f6e;stroke-width:1;stroke-dasharray:none;stroke-opacity:1"
       d="M 9.3304205,1.5967414 V 8.6191962 L 20.566347,8.209553 28.408088,10.43333 30.759411,1.6580764"
       id="path98" />
    <path
       style="fill:none;fill-opacity:0;stroke:#333f6e;stroke-width:1;stroke-dasharray:none;stroke-opacity:1"
       d="m 28.232527,17.982469 11.001675,19.055459 -8.437965,8.437966 h -10.22989 l 5.118901,-8.866196 -2.910704,-5.041488 4.755738,-5.041754 z"
       id="path99" />
    <path
       style="fill:none;fill-opacity:0;stroke:#333f6e;stroke-width:1;stroke-dasharray:none;stroke-opacity:1"
       d="M 29.695539,4.7568461 26.828036,3.7034779"
       id="path100" />
    <path
       style="fill:none;fill-opacity:0;stroke:#333f6e;stroke-width:1;stroke-dasharray:none;stroke-opacity:1"
       d="M 9.4474605,4.2886824 11.846799,3.469396"
       id="path101" />
    <path
       style="fill:none;fill-opacity:0;stroke:#333f6e;stroke-width:1;stroke-dasharray:none;stroke-opacity:1"
       d="M 9.3304205,6.8050621 11.729758,6.0442962"
       id="path102" />
    <path
       style="fill:none;fill-opacity:0;stroke:#333f6e;stroke-width:1;stroke-dasharray:none;stroke-opacity:1"
       d="M 28.817731,7.565828 27.35472,6.9221029"
       id="path103" />
    <path
       style="fill:none;fill-opacity:0;stroke:#333f6e;stroke-width:1;stroke-dasharray:none;stroke-opacity:1"
       d="m 37.069116,38.991313 -1.989695,-1.28745 -1.521532,1.345971"
       id="path104" />
    <path
       style="fill:none;fill-opacity:0;stroke:#333f6e;stroke-width:1;stroke-dasharray:none;stroke-opacity:1"
       d="m 34.611257,41.390652 -2.048216,-1.17041 -1.463011,1.22893"
       id="path105" />
    <path
       style="fill:none;fill-opacity:0;stroke:#333f6e;stroke-width:1;stroke-dasharray:none;stroke-opacity:1"
       d="M 31.860795,44.316675 30.105182,43.321827 28.58365,44.316675"
       id="path106" />
    <path
       style="fill:none;fill-opacity:0;stroke:#333f6e;stroke-width:1;stroke-dasharray:none;stroke-opacity:1"
       d="m 29.110334,18.860276 1.814134,-0.936328"
       id="path107" />
    <path
       style="fill:none;fill-opacity:0;stroke:#333f6e;stroke-width:1;stroke-dasharray:none;stroke-opacity:1"
       d="m 30.573345,21.376655 1.814134,-0.936327"
       id="path110" />
    <path
       style="fill:none;fill-opacity:0;stroke:#333f6e;stroke-width:1;stroke-dasharray:none;stroke-opacity:1"
       d="M 31.977836,23.951555 33.79197,23.015228"
       id="path111" />
    <path
       style="fill:none;fill-opacity:0;stroke:#333f6e;stroke-width:1;stroke-dasharray:none;stroke-opacity:1"
       d="m 33.440847,26.584976 1.814134,-0.936327"
       id="path112" />
    <path
       style="fill:none;fill-opacity:0;stroke:#333f6e;stroke-width:1;stroke-dasharray:none;stroke-opacity:1"
       d="M 35.079421,29.218397 36.893554,28.28207"
       id="path113" />
    <path
       style="fill:none;fill-opacity:0;stroke:#333f6e;stroke-width:1;stroke-dasharray:none;stroke-opacity:1"
       d="m 36.835035,32.14442 1.814133,-0.936328"
       id="path114" />
    <path
       style="fill:none;fill-opacity:0;stroke:#333f6e;stroke-width:1;stroke-dasharray:none;stroke-opacity:1"
       d="m 38.473608,34.953401 1.814133,-0.936327"
       id="path115" />
    <path
       style="fill:none;fill-opacity:0;stroke:#333f6e;stroke-width:1;stroke-dasharray:none;stroke-opacity:1"
       d="m 14.4217,15.173487 -1.404492,1.463012 0.994848,2.106735 1.872655,-1.40449 z"
       id="path117" />
    <path
       style="fill:none;fill-opacity:0;stroke:#333f6e;stroke-width:1;stroke-dasharray:none;stroke-opacity:1"
       d="m 11.261595,16.636499 1.931175,4.564596 4.798677,-3.803831"
       id="path118" />
    <path
       style="fill:none;fill-opacity:0;stroke:#333f6e;stroke-width:1;stroke-dasharray:none;stroke-opacity:1"
       d="M 13.134249,21.084053 11.378636,31.676256"
       id="path119" />
  </g>
</svg>
